<?xml version="1.0" standalone="no"?>
<!DOCTYPE svg PUBLIC "-//W3C//DTD SVG 20010904//EN"
 "http://www.w3.org/TR/2001/REC-SVG-20010904/DTD/svg10.dtd">
<svg version="1.0" xmlns="http://www.w3.org/2000/svg"
 width="500.000000pt" height="500.000000pt" viewBox="0 0 500.000000 500.000000"
 preserveAspectRatio="xMidYMid meet">
<metadata>
Created by potrace 1.14, written by Peter Selinger 2001-2017
</metadata>
<g transform="translate(0.000000,500.000000) scale(0.100000,-0.100000)"
fill="#000000" stroke="none">
<path d="M500 3574 c0 -766 2 -925 13 -921 51 19 1087 460 1789 760 207 89
375 164 373 166 -8 7 -242 108 -780 337 -1132 482 -1375 584 -1385 584 -7 0
-10 -298 -10 -926z"/>
<path d="M3995 2370 c-181 -72 -393 -155 -471 -185 -144 -57 -182 -83 -203
-138 -7 -19 -11 -198 -11 -523 l0 -494 -27 7 c-44 13 -155 7 -216 -11 -66 -19
-130 -66 -172 -124 -25 -37 -30 -55 -33 -117 -4 -66 -1 -79 24 -125 119 -218
519 -209 629 15 19 38 20 68 25 553 l5 513 45 19 c25 10 180 75 346 144 165
69 308 128 317 132 16 6 17 -24 17 -367 l0 -374 -113 0 c-107 0 -116 -2 -179
-33 -148 -73 -205 -204 -142 -330 92 -186 401 -232 565 -84 96 86 89 22 89
839 0 703 -1 719 -20 751 -22 36 -72 62 -117 62 -15 0 -176 -59 -358 -130z"/>
</g>
</svg>
